<?xml version="1.0" encoding="UTF-8" standalone="no"?>
<!DOCTYPE svg PUBLIC "-//W3C//DTD SVG 1.1//EN"
 "http://www.w3.org/Graphics/SVG/1.1/DTD/svg11.dtd">
<!-- Generated by graphviz version 14.1.5 (20260411.2331)
 -->
<!-- Title: G Pages: 1 -->
<svg width="1832pt" height="743pt"
 viewBox="0.00 0.00 1832.00 743.00" xmlns="http://www.w3.org/2000/svg" xmlns:xlink="http://www.w3.org/1999/xlink">
<g id="graph0" class="graph" transform="scale(1 1) rotate(0) translate(21.6 721.35)">
<title>G</title>
<polygon fill="#111111" stroke="none" points="-21.6,21.6 -21.6,-721.35 1810.1,-721.35 1810.1,21.6 -21.6,21.6"/>
<!-- App.css -->
<g id="node1" class="node">
<title>App.css</title>
<path fill="none" stroke="#cfffac" d="M380.21,-699.75C380.21,-699.75 332.04,-699.75 332.04,-699.75 328.08,-699.75 324.12,-695.79 324.12,-691.83 324.12,-691.83 324.12,-683.92 324.12,-683.92 324.12,-679.96 328.08,-676 332.04,-676 332.04,-676 380.21,-676 380.21,-676 384.17,-676 388.12,-679.96 388.12,-683.92 388.12,-683.92 388.12,-691.83 388.12,-691.83 388.12,-695.79 384.17,-699.75 380.21,-699.75"/>
<text xml:space="preserve" text-anchor="middle" x="356.12" y="-682.45" font-family="Arial" font-size="14.00" fill="#cfffac">App.css</text>
</g>
<!-- App.tsx -->
<g id="node2" class="node">
<title>App.tsx</title>
<path fill="none" stroke="#c6c5fe" d="M202.21,-560.75C202.21,-560.75 157.04,-560.75 157.04,-560.75 153.08,-560.75 149.12,-556.79 149.12,-552.83 149.12,-552.83 149.12,-544.92 149.12,-544.92 149.12,-540.96 153.08,-537 157.04,-537 157.04,-537 202.21,-537 202.21,-537 206.17,-537 210.12,-540.96 210.12,-544.92 210.12,-544.92 210.12,-552.83 210.12,-552.83 210.12,-556.79 206.17,-560.75 202.21,-560.75"/>
<text xml:space="preserve" text-anchor="middle" x="179.62" y="-543.45" font-family="Arial" font-size="14.00" fill="#c6c5fe">App.tsx</text>
</g>
<!-- App.tsx&#45;&gt;App.css -->
<g id="edge1" class="edge">
<title>App.tsx&#45;&gt;App.css</title>
<path fill="none" stroke="#757575" d="M184.71,-560.9C193.27,-584.19 215.35,-635.46 251.75,-661.88 269.4,-674.69 292.72,-681.21 312.73,-684.52"/>
<polygon fill="#757575" stroke="#757575" points="312.18,-687.98 322.57,-685.91 313.16,-681.05 312.18,-687.98"/>
</g>
<!-- components/NavBar.tsx -->
<g id="node3" class="node">
<title>components/NavBar.tsx</title>
<path fill="none" stroke="#c6c5fe" d="M662.08,-659.75C662.08,-659.75 518.67,-659.75 518.67,-659.75 514.71,-659.75 510.75,-655.79 510.75,-651.83 510.75,-651.83 510.75,-643.92 510.75,-643.92 510.75,-639.96 514.71,-636 518.67,-636 518.67,-636 662.08,-636 662.08,-636 666.04,-636 670,-639.96 670,-643.92 670,-643.92 670,-651.83 670,-651.83 670,-655.79 666.04,-659.75 662.08,-659.75"/>
<text xml:space="preserve" text-anchor="middle" x="590.38" y="-642.45" font-family="Arial" font-size="14.00" fill="#c6c5fe">components/NavBar.tsx</text>
</g>
<!-- App.tsx&#45;&gt;components/NavBar.tsx -->
<g id="edge2" class="edge">
<title>App.tsx&#45;&gt;components/NavBar.tsx</title>
<path fill="none" stroke="#757575" d="M189.1,-561C201.03,-576.95 224.39,-604.42 251.75,-616.88 329.9,-652.46 428.62,-657.55 499.08,-655.35"/>
<polygon fill="#757575" stroke="#757575" points="499.21,-658.85 509.07,-654.98 498.94,-651.86 499.21,-658.85"/>
</g>
<!-- components/ProtectedRoute.tsx -->
<g id="node4" class="node">
<title>components/ProtectedRoute.tsx</title>
<path fill="none" stroke="#c6c5fe" d="M452.58,-581.75C452.58,-581.75 259.67,-581.75 259.67,-581.75 255.71,-581.75 251.75,-577.79 251.75,-573.83 251.75,-573.83 251.75,-565.92 251.75,-565.92 251.75,-561.96 255.71,-558 259.67,-558 259.67,-558 452.58,-558 452.58,-558 456.54,-558 460.5,-561.96 460.5,-565.92 460.5,-565.92 460.5,-573.83 460.5,-573.83 460.5,-577.79 456.54,-581.75 452.58,-581.75"/>
<text xml:space="preserve" text-anchor="middle" x="356.12" y="-564.45" font-family="Arial" font-size="14.00" fill="#c6c5fe">components/ProtectedRoute.tsx</text>
</g>
<!-- App.tsx&#45;&gt;components/ProtectedRoute.tsx -->
<g id="edge3" class="edge">
<title>App.tsx&#45;&gt;components/ProtectedRoute.tsx</title>
<path fill="none" stroke="#757575" d="M210.62,-552.49C219.61,-553.57 230.05,-554.82 241.13,-556.16"/>
<polygon fill="#757575" stroke="#757575" points="240.54,-559.61 250.89,-557.33 241.38,-552.66 240.54,-559.61"/>
</g>
<!-- context/AuthContext.tsx -->
<g id="node5" class="node">
<title>context/AuthContext.tsx</title>
<path fill="none" stroke="#c6c5fe" d="M661.71,-617.75C661.71,-617.75 519.04,-617.75 519.04,-617.75 515.08,-617.75 511.12,-613.79 511.12,-609.83 511.12,-609.83 511.12,-601.92 511.12,-601.92 511.12,-597.96 515.08,-594 519.04,-594 519.04,-594 661.71,-594 661.71,-594 665.67,-594 669.62,-597.96 669.62,-601.92 669.62,-601.92 669.62,-609.83 669.62,-609.83 669.62,-613.79 665.67,-617.75 661.71,-617.75"/>
<text xml:space="preserve" text-anchor="middle" x="590.38" y="-600.45" font-family="Arial" font-size="14.00" fill="#c6c5fe">context/AuthContext.tsx</text>
</g>
<!-- App.tsx&#45;&gt;context/AuthContext.tsx -->
<g id="edge4" class="edge">
<title>App.tsx&#45;&gt;context/AuthContext.tsx</title>
<path fill="none" stroke="#757575" d="M196.23,-561.16C209.98,-571.2 230.99,-584.71 251.75,-590.88 333.13,-615.06 430.37,-616.7 499.55,-613.55"/>
<polygon fill="#757575" stroke="#757575" points="499.52,-617.06 509.33,-613.06 499.16,-610.07 499.52,-617.06"/>
</g>
<!-- pages/CourseDetail.tsx -->
<g id="node6" class="node">
<title>pages/CourseDetail.tsx</title>
<path fill="none" stroke="#c6c5fe" d="M660.21,-308.75C660.21,-308.75 520.54,-308.75 520.54,-308.75 516.58,-308.75 512.62,-304.79 512.62,-300.83 512.62,-300.83 512.62,-292.92 512.62,-292.92 512.62,-288.96 516.58,-285 520.54,-285 520.54,-285 660.21,-285 660.21,-285 664.17,-285 668.12,-288.96 668.12,-292.92 668.12,-292.92 668.12,-300.83 668.12,-300.83 668.12,-304.79 664.17,-308.75 660.21,-308.75"/>
<text xml:space="preserve" text-anchor="middle" x="590.38" y="-291.45" font-family="Arial" font-size="14.00" fill="#c6c5fe">pages/CourseDetail.tsx</text>
</g>
<!-- App.tsx&#45;&gt;pages/CourseDetail.tsx -->
<g id="edge5" class="edge">
<title>App.tsx&#45;&gt;pages/CourseDetail.tsx</title>
<path fill="none" stroke="#757575" d="M204.89,-536.64C208.78,-534.06 212.57,-531.12 215.75,-527.88 238.33,-504.85 228.3,-487.01 251.75,-464.88 335.63,-385.68 463.99,-335.91 535.87,-312.58"/>
<polygon fill="#757575" stroke="#757575" points="536.57,-316.03 545.03,-309.66 534.44,-309.36 536.57,-316.03"/>
</g>
<!-- pages/EmailLinkHandler.tsx -->
<g id="node7" class="node">
<title>pages/EmailLinkHandler.tsx</title>
<path fill="none" stroke="#c6c5fe" d="M439.83,-539.75C439.83,-539.75 272.42,-539.75 272.42,-539.75 268.46,-539.75 264.5,-535.79 264.5,-531.83 264.5,-531.83 264.5,-523.92 264.5,-523.92 264.5,-519.96 268.46,-516 272.42,-516 272.42,-516 439.83,-516 439.83,-516 443.79,-516 447.75,-519.96 447.75,-523.92 447.75,-523.92 447.75,-531.83 447.75,-531.83 447.75,-535.79 443.79,-539.75 439.83,-539.75"/>
<text xml:space="preserve" text-anchor="middle" x="356.12" y="-522.45" font-family="Arial" font-size="14.00" fill="#c6c5fe">pages/EmailLinkHandler.tsx</text>
</g>
<!-- App.tsx&#45;&gt;pages/EmailLinkHandler.tsx -->
<g id="edge6" class="edge">
<title>App.tsx&#45;&gt;pages/EmailLinkHandler.tsx</title>
<path fill="none" stroke="#757575" d="M210.62,-545.26C222.78,-543.8 237.58,-542.02 253.03,-540.16"/>
<polygon fill="#757575" stroke="#757575" points="253.35,-543.65 262.86,-538.98 252.51,-536.7 253.35,-543.65"/>
</g>
<!-- pages/Home.tsx -->
<g id="node8" class="node">
<title>pages/Home.tsx</title>
<path fill="none" stroke="#c6c5fe" d="M405.33,-305.75C405.33,-305.75 306.92,-305.75 306.92,-305.75 302.96,-305.75 299,-301.79 299,-297.83 299,-297.83 299,-289.92 299,-289.92 299,-285.96 302.96,-282 306.92,-282 306.92,-282 405.33,-282 405.33,-282 409.29,-282 413.25,-285.96 413.25,-289.92 413.25,-289.92 413.25,-297.83 413.25,-297.83 413.25,-301.79 409.29,-305.75 405.33,-305.75"/>
<text xml:space="preserve" text-anchor="middle" x="356.12" y="-288.45" font-family="Arial" font-size="14.00" fill="#c6c5fe">pages/Home.tsx</text>
</g>
<!-- App.tsx&#45;&gt;pages/Home.tsx -->
<g id="edge7" class="edge">
<title>App.tsx&#45;&gt;pages/Home.tsx</title>
<path fill="none" stroke="#757575" d="M206.69,-536.52C210.1,-534.03 213.26,-531.16 215.75,-527.88 252.72,-479.06 220.76,-447.69 251.75,-394.88 271.39,-361.4 305.04,-331.5 328.6,-313.08"/>
<polygon fill="#757575" stroke="#757575" points="330.66,-315.91 336.49,-307.06 326.42,-310.34 330.66,-315.91"/>
</g>
<!-- pages/LoginPage.tsx -->
<g id="node9" class="node">
<title>pages/LoginPage.tsx</title>
<path fill="none" stroke="#c6c5fe" d="M419.21,-497.75C419.21,-497.75 293.04,-497.75 293.04,-497.75 289.08,-497.75 285.12,-493.79 285.12,-489.83 285.12,-489.83 285.12,-481.92 285.12,-481.92 285.12,-477.96 289.08,-474 293.04,-474 293.04,-474 419.21,-474 419.21,-474 423.17,-474 427.12,-477.96 427.12,-481.92 427.12,-481.92 427.12,-489.83 427.12,-489.83 427.12,-493.79 423.17,-497.75 419.21,-497.75"/>
<text xml:space="preserve" text-anchor="middle" x="356.12" y="-480.45" font-family="Arial" font-size="14.00" fill="#c6c5fe">pages/LoginPage.tsx</text>
</g>
<!-- App.tsx&#45;&gt;pages/LoginPage.tsx -->
<g id="edge8" class="edge">
<title>App.tsx&#45;&gt;pages/LoginPage.tsx</title>
<path fill="none" stroke="#757575" d="M201.05,-536.71C221.57,-524.49 250.38,-507.4 251.75,-506.88 258.76,-504.18 266.17,-501.81 273.68,-499.73"/>
<polygon fill="#757575" stroke="#757575" points="274.44,-503.15 283.25,-497.27 272.69,-496.37 274.44,-503.15"/>
</g>
<!-- services/firebase.ts -->
<g id="node19" class="node">
<title>services/firebase.ts</title>
<path fill="none" stroke="#c6c5fe" d="M1469.08,-579.75C1469.08,-579.75 1353.42,-579.75 1353.42,-579.75 1349.46,-579.75 1345.5,-575.79 1345.5,-571.83 1345.5,-571.83 1345.5,-563.92 1345.5,-563.92 1345.5,-559.96 1349.46,-556 1353.42,-556 1353.42,-556 1469.08,-556 1469.08,-556 1473.04,-556 1477,-559.96 1477,-563.92 1477,-563.92 1477,-571.83 1477,-571.83 1477,-575.79 1473.04,-579.75 1469.08,-579.75"/>
<text xml:space="preserve" text-anchor="middle" x="1411.25" y="-562.45" font-family="Arial" font-size="14.00" fill="#c6c5fe">services/firebase.ts</text>
</g>
<!-- components/NavBar.tsx&#45;&gt;services/firebase.ts -->
<g id="edge16" class="edge">
<title>components/NavBar.tsx&#45;&gt;services/firebase.ts</title>
<path fill="none" stroke="#757575" d="M670.28,-645C794.23,-639.8 1041.91,-626.71 1250.25,-598.88 1281.2,-594.74 1315.2,-588.41 1343.86,-582.55"/>
<polygon fill="#757575" stroke="#757575" points="1344.41,-586.01 1353.5,-580.55 1342.99,-579.15 1344.41,-586.01"/>
</g>
<!-- components/ProtectedRoute.tsx&#45;&gt;context/AuthContext.tsx -->
<g id="edge21" class="edge">
<title>components/ProtectedRoute.tsx&#45;&gt;context/AuthContext.tsx</title>
<path fill="none" stroke="#757575" d="M436.73,-582.21C456.89,-585.34 478.69,-588.72 499.33,-591.92"/>
<polygon fill="#757575" stroke="#757575" points="498.75,-595.37 509.17,-593.44 499.82,-588.45 498.75,-595.37"/>
</g>
<!-- context/AuthContext.tsx&#45;&gt;services/firebase.ts -->
<g id="edge26" class="edge">
<title>context/AuthContext.tsx&#45;&gt;services/firebase.ts</title>
<path fill="none" stroke="#757575" d="M670.02,-603.67C793.61,-600.01 1040.81,-591.86 1250.25,-579.88 1277.63,-578.31 1307.61,-576.17 1334.14,-574.14"/>
<polygon fill="#757575" stroke="#757575" points="1334.07,-577.65 1343.77,-573.39 1333.53,-570.67 1334.07,-577.65"/>
</g>
<!-- components/CourseAtAGlance.tsx -->
<g id="node11" class="node">
<title>components/CourseAtAGlance.tsx</title>
<path fill="none" stroke="#c6c5fe" d="M1242.33,-107.75C1242.33,-107.75 1034.42,-107.75 1034.42,-107.75 1030.46,-107.75 1026.5,-103.79 1026.5,-99.83 1026.5,-99.83 1026.5,-91.92 1026.5,-91.92 1026.5,-87.96 1030.46,-84 1034.42,-84 1034.42,-84 1242.33,-84 1242.33,-84 1246.29,-84 1250.25,-87.96 1250.25,-91.92 1250.25,-91.92 1250.25,-99.83 1250.25,-99.83 1250.25,-103.79 1246.29,-107.75 1242.33,-107.75"/>
<text xml:space="preserve" text-anchor="middle" x="1138.38" y="-90.45" font-family="Arial" font-size="14.00" fill="#c6c5fe">components/CourseAtAGlance.tsx</text>
</g>
<!-- pages/CourseDetail.tsx&#45;&gt;components/CourseAtAGlance.tsx -->
<g id="edge34" class="edge">
<title>pages/CourseDetail.tsx&#45;&gt;components/CourseAtAGlance.tsx</title>
<path fill="none" stroke="#757575" d="M668.29,-286.68C674.11,-283.83 679.54,-280.28 684.25,-275.88 725.23,-237.55 677.74,-191.49 720.25,-154.88 731.58,-145.11 898.78,-123.73 1018,-109.57"/>
<polygon fill="#757575" stroke="#757575" points="1018.36,-113.05 1027.88,-108.4 1017.54,-106.1 1018.36,-113.05"/>
</g>
<!-- components/OverallScore.tsx -->
<g id="node15" class="node">
<title>components/OverallScore.tsx</title>
<path fill="none" stroke="#c6c5fe" d="M1227.33,-65.75C1227.33,-65.75 1049.42,-65.75 1049.42,-65.75 1045.46,-65.75 1041.5,-61.79 1041.5,-57.83 1041.5,-57.83 1041.5,-49.92 1041.5,-49.92 1041.5,-45.96 1045.46,-42 1049.42,-42 1049.42,-42 1227.33,-42 1227.33,-42 1231.29,-42 1235.25,-45.96 1235.25,-49.92 1235.25,-49.92 1235.25,-57.83 1235.25,-57.83 1235.25,-61.79 1231.29,-65.75 1227.33,-65.75"/>
<text xml:space="preserve" text-anchor="middle" x="1138.38" y="-48.45" font-family="Arial" font-size="14.00" fill="#c6c5fe">components/OverallScore.tsx</text>
</g>
<!-- pages/CourseDetail.tsx&#45;&gt;components/OverallScore.tsx -->
<g id="edge35" class="edge">
<title>pages/CourseDetail.tsx&#45;&gt;components/OverallScore.tsx</title>
<path fill="none" stroke="#757575" d="M668.2,-287.27C674.12,-284.3 679.59,-280.57 684.25,-275.88 736.85,-222.94 665.05,-162.09 720.25,-111.88 765.01,-71.16 930.63,-87.62 990.5,-78.88 1012.3,-75.69 1035.84,-71.86 1057.56,-68.16"/>
<polygon fill="#757575" stroke="#757575" points="1057.98,-71.64 1067.25,-66.5 1056.8,-64.74 1057.98,-71.64"/>
</g>
<!-- types/types.ts -->
<g id="node16" class="node">
<title>types/types.ts</title>
<path fill="none" stroke="#cfffac" d="M1452.58,-345.75C1452.58,-345.75 1369.92,-345.75 1369.92,-345.75 1365.96,-345.75 1362,-341.79 1362,-337.83 1362,-337.83 1362,-329.92 1362,-329.92 1362,-325.96 1365.96,-322 1369.92,-322 1369.92,-322 1452.58,-322 1452.58,-322 1456.54,-322 1460.5,-325.96 1460.5,-329.92 1460.5,-329.92 1460.5,-337.83 1460.5,-337.83 1460.5,-341.79 1456.54,-345.75 1452.58,-345.75"/>
<text xml:space="preserve" text-anchor="middle" x="1411.25" y="-328.45" font-family="Arial" font-size="14.00" fill="#cfffac">types/types.ts</text>
</g>
<!-- pages/CourseDetail.tsx&#45;&gt;types/types.ts -->
<g id="edge39" class="edge">
<title>pages/CourseDetail.tsx&#45;&gt;types/types.ts</title>
<path fill="none" stroke="#757575" d="M631.2,-309.1C647.82,-314.59 667.19,-321.49 684.25,-328.88 700.85,-336.07 702.69,-343.53 720.25,-347.88 947.27,-404.11 1229.26,-366.44 1350.4,-345.38"/>
<polygon fill="#757575" stroke="#757575" points="1350.88,-348.85 1360.12,-343.66 1349.66,-341.96 1350.88,-348.85"/>
</g>
<!-- utilities/offeringHelpers.ts -->
<g id="node17" class="node">
<title>utilities/offeringHelpers.ts</title>
<path fill="none" stroke="#c6c5fe" d="M1213.83,-267.75C1213.83,-267.75 1062.92,-267.75 1062.92,-267.75 1058.96,-267.75 1055,-263.79 1055,-259.83 1055,-259.83 1055,-251.92 1055,-251.92 1055,-247.96 1058.96,-244 1062.92,-244 1062.92,-244 1213.83,-244 1213.83,-244 1217.79,-244 1221.75,-247.96 1221.75,-251.92 1221.75,-251.92 1221.75,-259.83 1221.75,-259.83 1221.75,-263.79 1217.79,-267.75 1213.83,-267.75"/>
<text xml:space="preserve" text-anchor="middle" x="1138.38" y="-250.45" font-family="Arial" font-size="14.00" fill="#c6c5fe">utilities/offeringHelpers.ts</text>
</g>
<!-- pages/CourseDetail.tsx&#45;&gt;utilities/offeringHelpers.ts -->
<g id="edge40" class="edge">
<title>pages/CourseDetail.tsx&#45;&gt;utilities/offeringHelpers.ts</title>
<path fill="none" stroke="#757575" d="M668.42,-295.11C748.91,-292.78 878.8,-287.64 990.5,-276.88 1009.58,-275.04 1029.97,-272.49 1049.3,-269.81"/>
<polygon fill="#757575" stroke="#757575" points="1049.64,-273.3 1059.05,-268.43 1048.65,-266.37 1049.64,-273.3"/>
</g>
<!-- components/QuestionDistributionBlock.tsx -->
<g id="node20" class="node">
<title>components/QuestionDistributionBlock.tsx</title>
<path fill="none" stroke="#c6c5fe" d="M982.58,-187.75C982.58,-187.75 728.17,-187.75 728.17,-187.75 724.21,-187.75 720.25,-183.79 720.25,-179.83 720.25,-179.83 720.25,-171.92 720.25,-171.92 720.25,-167.96 724.21,-164 728.17,-164 728.17,-164 982.58,-164 982.58,-164 986.54,-164 990.5,-167.96 990.5,-171.92 990.5,-171.92 990.5,-179.83 990.5,-179.83 990.5,-183.79 986.54,-187.75 982.58,-187.75"/>
<text xml:space="preserve" text-anchor="middle" x="855.38" y="-170.45" font-family="Arial" font-size="14.00" fill="#c6c5fe">components/QuestionDistributionBlock.tsx</text>
</g>
<!-- pages/CourseDetail.tsx&#45;&gt;components/QuestionDistributionBlock.tsx -->
<g id="edge36" class="edge">
<title>pages/CourseDetail.tsx&#45;&gt;components/QuestionDistributionBlock.tsx</title>
<path fill="none" stroke="#757575" d="M665.54,-284.65C672.08,-282.23 678.42,-279.34 684.25,-275.88 705.1,-263.48 700.69,-249.21 720.25,-234.88 745.59,-216.31 777.69,-201.93 804.14,-192.01"/>
<polygon fill="#757575" stroke="#757575" points="805.09,-195.39 813.29,-188.68 802.69,-188.81 805.09,-195.39"/>
</g>
<!-- components/RAGCommentFeature.tsx -->
<g id="node21" class="node">
<title>components/RAGCommentFeature.tsx</title>
<path fill="none" stroke="#cfffac" d="M973.21,-69.75C973.21,-69.75 737.54,-69.75 737.54,-69.75 733.58,-69.75 729.62,-65.79 729.62,-61.83 729.62,-61.83 729.62,-53.92 729.62,-53.92 729.62,-49.96 733.58,-46 737.54,-46 737.54,-46 973.21,-46 973.21,-46 977.17,-46 981.12,-49.96 981.12,-53.92 981.12,-53.92 981.12,-61.83 981.12,-61.83 981.12,-65.79 977.17,-69.75 973.21,-69.75"/>
<text xml:space="preserve" text-anchor="middle" x="855.38" y="-52.45" font-family="Arial" font-size="14.00" fill="#cfffac">components/RAGCommentFeature.tsx</text>
</g>
<!-- pages/CourseDetail.tsx&#45;&gt;components/RAGCommentFeature.tsx -->
<g id="edge37" class="edge">
<title>pages/CourseDetail.tsx&#45;&gt;components/RAGCommentFeature.tsx</title>
<path fill="none" stroke="#757575" d="M668.36,-287.42C674.24,-284.42 679.66,-280.64 684.25,-275.88 744.49,-213.36 659.05,-145.45 720.25,-83.88 722.97,-81.14 725.88,-78.65 728.95,-76.38"/>
<polygon fill="#757575" stroke="#757575" points="730.79,-79.36 737.34,-71.04 727.02,-73.46 730.79,-79.36"/>
</g>
<!-- hooks/useCourseOffering.ts -->
<g id="node27" class="node">
<title>hooks/useCourseOffering.ts</title>
<path fill="none" stroke="#c6c5fe" d="M939.46,-465.75C939.46,-465.75 771.29,-465.75 771.29,-465.75 767.33,-465.75 763.38,-461.79 763.38,-457.83 763.38,-457.83 763.38,-449.92 763.38,-449.92 763.38,-445.96 767.33,-442 771.29,-442 771.29,-442 939.46,-442 939.46,-442 943.42,-442 947.38,-445.96 947.38,-449.92 947.38,-449.92 947.38,-457.83 947.38,-457.83 947.38,-461.79 943.42,-465.75 939.46,-465.75"/>
<text xml:space="preserve" text-anchor="middle" x="855.38" y="-448.45" font-family="Arial" font-size="14.00" fill="#c6c5fe">hooks/useCourseOffering.ts</text>
</g>
<!-- pages/CourseDetail.tsx&#45;&gt;hooks/useCourseOffering.ts -->
<g id="edge38" class="edge">
<title>pages/CourseDetail.tsx&#45;&gt;hooks/useCourseOffering.ts</title>
<path fill="none" stroke="#757575" d="M598.91,-309.21C616.4,-336.63 662.66,-402.61 720.25,-432.88 730.11,-438.06 740.9,-442.04 751.94,-445.09"/>
<polygon fill="#757575" stroke="#757575" points="751.02,-448.47 761.56,-447.48 752.7,-441.67 751.02,-448.47"/>
</g>
<!-- pages/EmailLinkHandler.tsx&#45;&gt;services/firebase.ts -->
<g id="edge41" class="edge">
<title>pages/EmailLinkHandler.tsx&#45;&gt;services/firebase.ts</title>
<path fill="none" stroke="#757575" d="M448.14,-537.97C464.23,-539.48 480.85,-540.87 496.5,-541.88 806.48,-561.83 1176.6,-566.47 1333.7,-567.55"/>
<polygon fill="#757575" stroke="#757575" points="1333.55,-571.05 1343.57,-567.61 1333.59,-564.05 1333.55,-571.05"/>
</g>
<!-- components/CourseCard.tsx -->
<g id="node13" class="node">
<title>components/CourseCard.tsx</title>
<path fill="none" stroke="#c6c5fe" d="M676.33,-266.75C676.33,-266.75 504.42,-266.75 504.42,-266.75 500.46,-266.75 496.5,-262.79 496.5,-258.83 496.5,-258.83 496.5,-250.92 496.5,-250.92 496.5,-246.96 500.46,-243 504.42,-243 504.42,-243 676.33,-243 676.33,-243 680.29,-243 684.25,-246.96 684.25,-250.92 684.25,-250.92 684.25,-258.83 684.25,-258.83 684.25,-262.79 680.29,-266.75 676.33,-266.75"/>
<text xml:space="preserve" text-anchor="middle" x="590.38" y="-249.45" font-family="Arial" font-size="14.00" fill="#c6c5fe">components/CourseCard.tsx</text>
</g>
<!-- pages/Home.tsx&#45;&gt;components/CourseCard.tsx -->
<g id="edge42" class="edge">
<title>pages/Home.tsx&#45;&gt;components/CourseCard.tsx</title>
<path fill="none" stroke="#757575" d="M413.64,-284.38C441.03,-279.79 474.48,-274.17 504.82,-269.07"/>
<polygon fill="#757575" stroke="#757575" points="505.07,-272.58 514.35,-267.47 503.91,-265.68 505.07,-272.58"/>
</g>
<!-- components/SearchBar.tsx -->
<g id="node23" class="node">
<title>components/SearchBar.tsx</title>
<path fill="none" stroke="#cfffac" d="M671.46,-224.75C671.46,-224.75 509.29,-224.75 509.29,-224.75 505.33,-224.75 501.38,-220.79 501.38,-216.83 501.38,-216.83 501.38,-208.92 501.38,-208.92 501.38,-204.96 505.33,-201 509.29,-201 509.29,-201 671.46,-201 671.46,-201 675.42,-201 679.38,-204.96 679.38,-208.92 679.38,-208.92 679.38,-216.83 679.38,-216.83 679.38,-220.79 675.42,-224.75 671.46,-224.75"/>
<text xml:space="preserve" text-anchor="middle" x="590.38" y="-207.45" font-family="Arial" font-size="14.00" fill="#cfffac">components/SearchBar.tsx</text>
</g>
<!-- pages/Home.tsx&#45;&gt;components/SearchBar.tsx -->
<g id="edge43" class="edge">
<title>pages/Home.tsx&#45;&gt;components/SearchBar.tsx</title>
<path fill="none" stroke="#757575" d="M381.77,-281.62C409.21,-268.36 455.16,-247.32 496.5,-233.88 503,-231.76 509.82,-229.78 516.69,-227.95"/>
<polygon fill="#757575" stroke="#757575" points="517.2,-231.43 526.03,-225.57 515.47,-224.65 517.2,-231.43"/>
</g>
<!-- hooks/useCourses.ts -->
<g id="node29" class="node">
<title>hooks/useCourses.ts</title>
<path fill="none" stroke="#c6c5fe" d="M918.46,-423.75C918.46,-423.75 792.29,-423.75 792.29,-423.75 788.33,-423.75 784.38,-419.79 784.38,-415.83 784.38,-415.83 784.38,-407.92 784.38,-407.92 784.38,-403.96 788.33,-400 792.29,-400 792.29,-400 918.46,-400 918.46,-400 922.42,-400 926.38,-403.96 926.38,-407.92 926.38,-407.92 926.38,-415.83 926.38,-415.83 926.38,-419.79 922.42,-423.75 918.46,-423.75"/>
<text xml:space="preserve" text-anchor="middle" x="855.38" y="-406.45" font-family="Arial" font-size="14.00" fill="#c6c5fe">hooks/useCourses.ts</text>
</g>
<!-- pages/Home.tsx&#45;&gt;hooks/useCourses.ts -->
<g id="edge44" class="edge">
<title>pages/Home.tsx&#45;&gt;hooks/useCourses.ts</title>
<path fill="none" stroke="#757575" d="M402.22,-306.18C470.67,-324.65 605.05,-360.14 720.25,-385.88 738.08,-389.86 757.32,-393.8 775.51,-397.36"/>
<polygon fill="#757575" stroke="#757575" points="774.71,-400.77 785.19,-399.24 776.04,-393.9 774.71,-400.77"/>
</g>
<!-- pages/LoginPage.tsx&#45;&gt;services/firebase.ts -->
<g id="edge45" class="edge">
<title>pages/LoginPage.tsx&#45;&gt;services/firebase.ts</title>
<path fill="none" stroke="#757575" d="M427.45,-491.35C616.99,-506.11 1137.4,-546.63 1333.83,-561.92"/>
<polygon fill="#757575" stroke="#757575" points="1333.43,-565.4 1343.67,-562.69 1333.98,-558.43 1333.43,-565.4"/>
</g>
<!-- app.test.tsx -->
<g id="node10" class="node">
<title>app.test.tsx</title>
<path fill="none" stroke="#c6c5fe" d="M88.33,-560.75C88.33,-560.75 19.17,-560.75 19.17,-560.75 15.21,-560.75 11.25,-556.79 11.25,-552.83 11.25,-552.83 11.25,-544.92 11.25,-544.92 11.25,-540.96 15.21,-537 19.17,-537 19.17,-537 88.33,-537 88.33,-537 92.29,-537 96.25,-540.96 96.25,-544.92 96.25,-544.92 96.25,-552.83 96.25,-552.83 96.25,-556.79 92.29,-560.75 88.33,-560.75"/>
<text xml:space="preserve" text-anchor="middle" x="53.75" y="-543.45" font-family="Arial" font-size="14.00" fill="#c6c5fe">app.test.tsx</text>
</g>
<!-- app.test.tsx&#45;&gt;App.tsx -->
<g id="edge9" class="edge">
<title>app.test.tsx&#45;&gt;App.tsx</title>
<path fill="none" stroke="#757575" d="M96.69,-548.88C109.93,-548.88 124.55,-548.88 137.72,-548.88"/>
<polygon fill="#757575" stroke="#757575" points="137.34,-552.38 147.34,-548.88 137.34,-545.38 137.34,-552.38"/>
</g>
<!-- utilities/ratingColors.ts -->
<g id="node12" class="node">
<title>utilities/ratingColors.ts</title>
<path fill="none" stroke="#cfffac" d="M1477.33,-86.75C1477.33,-86.75 1345.17,-86.75 1345.17,-86.75 1341.21,-86.75 1337.25,-82.79 1337.25,-78.83 1337.25,-78.83 1337.25,-70.92 1337.25,-70.92 1337.25,-66.96 1341.21,-63 1345.17,-63 1345.17,-63 1477.33,-63 1477.33,-63 1481.29,-63 1485.25,-66.96 1485.25,-70.92 1485.25,-70.92 1485.25,-78.83 1485.25,-78.83 1485.25,-82.79 1481.29,-86.75 1477.33,-86.75"/>
<text xml:space="preserve" text-anchor="middle" x="1411.25" y="-69.45" font-family="Arial" font-size="14.00" fill="#cfffac">utilities/ratingColors.ts</text>
</g>
<!-- components/CourseAtAGlance.tsx&#45;&gt;utilities/ratingColors.ts -->
<g id="edge10" class="edge">
<title>components/CourseAtAGlance.tsx&#45;&gt;utilities/ratingColors.ts</title>
<path fill="none" stroke="#757575" d="M1250.72,-87.24C1275.68,-85.31 1301.76,-83.29 1325.43,-81.45"/>
<polygon fill="#757575" stroke="#757575" points="1325.63,-84.95 1335.33,-80.68 1325.09,-77.97 1325.63,-84.95"/>
</g>
<!-- components/OfferingList.tsx -->
<g id="node14" class="node">
<title>components/OfferingList.tsx</title>
<path fill="none" stroke="#c6c5fe" d="M939.83,-267.75C939.83,-267.75 770.92,-267.75 770.92,-267.75 766.96,-267.75 763,-263.79 763,-259.83 763,-259.83 763,-251.92 763,-251.92 763,-247.96 766.96,-244 770.92,-244 770.92,-244 939.83,-244 939.83,-244 943.79,-244 947.75,-247.96 947.75,-251.92 947.75,-251.92 947.75,-259.83 947.75,-259.83 947.75,-263.79 943.79,-267.75 939.83,-267.75"/>
<text xml:space="preserve" text-anchor="middle" x="855.38" y="-250.45" font-family="Arial" font-size="14.00" fill="#c6c5fe">components/OfferingList.tsx</text>
</g>
<!-- components/CourseCard.tsx&#45;&gt;components/OfferingList.tsx -->
<g id="edge11" class="edge">
<title>components/CourseCard.tsx&#45;&gt;components/OfferingList.tsx</title>
<path fill="none" stroke="#757575" d="M684.47,-255.23C706.11,-255.31 729.28,-255.4 751.32,-255.48"/>
<polygon fill="#757575" stroke="#757575" points="751.21,-258.98 761.22,-255.52 751.23,-251.98 751.21,-258.98"/>
</g>
<!-- components/CourseCard.tsx&#45;&gt;components/OverallScore.tsx -->
<g id="edge12" class="edge">
<title>components/CourseCard.tsx&#45;&gt;components/OverallScore.tsx</title>
<path fill="none" stroke="#757575" d="M673.54,-242.52C677.43,-240.08 681.05,-237.22 684.25,-233.88 745.86,-169.64 651.89,-93.87 720.25,-36.88 770.6,5.11 958.1,-20.73 1063.76,-39.51"/>
<polygon fill="#757575" stroke="#757575" points="1063.02,-42.93 1073.48,-41.26 1064.26,-36.04 1063.02,-42.93"/>
</g>
<!-- components/CourseCard.tsx&#45;&gt;types/types.ts -->
<g id="edge13" class="edge">
<title>components/CourseCard.tsx&#45;&gt;types/types.ts</title>
<path fill="none" stroke="#757575" d="M658.81,-267.19C678.57,-270.58 700.24,-274.09 720.25,-276.88 855.84,-295.74 890.09,-298.27 1026.5,-309.88 1141.01,-319.62 1275.06,-327.11 1350.58,-330.97"/>
<polygon fill="#757575" stroke="#757575" points="1350.06,-334.45 1360.22,-331.46 1350.41,-327.46 1350.06,-334.45"/>
</g>
<!-- components/CourseCard.tsx&#45;&gt;utilities/offeringHelpers.ts -->
<g id="edge14" class="edge">
<title>components/CourseCard.tsx&#45;&gt;utilities/offeringHelpers.ts</title>
<path fill="none" stroke="#757575" d="M658.04,-242.53C677.97,-239.38 699.93,-236.44 720.25,-234.88 840.01,-225.64 870.69,-226.35 990.5,-234.88 1011.2,-236.35 1033.42,-238.97 1054.16,-241.88"/>
<polygon fill="#757575" stroke="#757575" points="1053.61,-245.34 1064.01,-243.3 1054.61,-238.41 1053.61,-245.34"/>
</g>
<!-- components/OfferingList.tsx&#45;&gt;components/OverallScore.tsx -->
<g id="edge17" class="edge">
<title>components/OfferingList.tsx&#45;&gt;components/OverallScore.tsx</title>
<path fill="none" stroke="#757575" d="M910.96,-243.56C938.32,-234.78 969.91,-220.27 990.5,-196.88 1027.85,-154.43 984.58,-112.81 1026.5,-74.88 1028.16,-73.37 1029.9,-71.96 1031.69,-70.64"/>
<polygon fill="#757575" stroke="#757575" points="1033.25,-73.79 1039.88,-65.52 1029.54,-67.85 1033.25,-73.79"/>
</g>
<!-- components/OfferingList.tsx&#45;&gt;types/types.ts -->
<g id="edge18" class="edge">
<title>components/OfferingList.tsx&#45;&gt;types/types.ts</title>
<path fill="none" stroke="#757575" d="M944.14,-268.23C1057.69,-284.23 1252.52,-311.66 1350.42,-325.45"/>
<polygon fill="#757575" stroke="#757575" points="1349.69,-328.88 1360.08,-326.81 1350.66,-321.95 1349.69,-328.88"/>
</g>
<!-- components/OfferingList.tsx&#45;&gt;utilities/offeringHelpers.ts -->
<g id="edge19" class="edge">
<title>components/OfferingList.tsx&#45;&gt;utilities/offeringHelpers.ts</title>
<path fill="none" stroke="#757575" d="M948,-255.88C978.66,-255.88 1012.88,-255.88 1043.7,-255.88"/>
<polygon fill="#757575" stroke="#757575" points="1043.38,-259.38 1053.38,-255.88 1043.38,-252.38 1043.38,-259.38"/>
</g>
<!-- components/OverallScore.tsx&#45;&gt;utilities/ratingColors.ts -->
<g id="edge20" class="edge">
<title>components/OverallScore.tsx&#45;&gt;utilities/ratingColors.ts</title>
<path fill="none" stroke="#757575" d="M1235.64,-61.34C1265.04,-63.62 1297.13,-66.11 1325.69,-68.32"/>
<polygon fill="#757575" stroke="#757575" points="1325.12,-71.79 1335.36,-69.07 1325.66,-64.81 1325.12,-71.79"/>
</g>
<!-- utilities/offeringHelpers.ts&#45;&gt;types/types.ts -->
<g id="edge50" class="edge">
<title>utilities/offeringHelpers.ts&#45;&gt;types/types.ts</title>
<path fill="none" stroke="#757575" d="M1196.01,-268.19C1213.48,-272.25 1232.73,-276.98 1250.25,-281.88 1289.13,-292.73 1332.66,-307.02 1364.49,-317.87"/>
<polygon fill="#757575" stroke="#757575" points="1363.21,-321.13 1373.8,-321.07 1365.48,-314.51 1363.21,-321.13"/>
</g>
<!-- components/DistributionChart.tsx -->
<g id="node18" class="node">
<title>components/DistributionChart.tsx</title>
<path fill="none" stroke="#c6c5fe" d="M1238.21,-225.75C1238.21,-225.75 1038.54,-225.75 1038.54,-225.75 1034.58,-225.75 1030.62,-221.79 1030.62,-217.83 1030.62,-217.83 1030.62,-209.92 1030.62,-209.92 1030.62,-205.96 1034.58,-202 1038.54,-202 1038.54,-202 1238.21,-202 1238.21,-202 1242.17,-202 1246.12,-205.96 1246.12,-209.92 1246.12,-209.92 1246.12,-217.83 1246.12,-217.83 1246.12,-221.79 1242.17,-225.75 1238.21,-225.75"/>
<text xml:space="preserve" text-anchor="middle" x="1138.38" y="-208.45" font-family="Arial" font-size="14.00" fill="#c6c5fe">components/DistributionChart.tsx</text>
</g>
<!-- components/DistributionChart.tsx&#45;&gt;types/types.ts -->
<g id="edge15" class="edge">
<title>components/DistributionChart.tsx&#45;&gt;types/types.ts</title>
<path fill="none" stroke="#757575" d="M1222.66,-226.19C1232.11,-228.6 1241.48,-231.47 1250.25,-234.88 1302.18,-255.05 1355.93,-292.28 1386.02,-314.89"/>
<polygon fill="#757575" stroke="#757575" points="1383.65,-317.48 1393.73,-320.76 1387.89,-311.92 1383.65,-317.48"/>
</g>
<!-- dataconnect&#45;generated/index.d.ts -->
<g id="node25" class="node">
<title>dataconnect&#45;generated/index.d.ts</title>
<path fill="none" stroke="#cfffac" d="M1780.58,-537.75C1780.58,-537.75 1580.17,-537.75 1580.17,-537.75 1576.21,-537.75 1572.25,-533.79 1572.25,-529.83 1572.25,-529.83 1572.25,-521.92 1572.25,-521.92 1572.25,-517.96 1576.21,-514 1580.17,-514 1580.17,-514 1780.58,-514 1780.58,-514 1784.54,-514 1788.5,-517.96 1788.5,-521.92 1788.5,-521.92 1788.5,-529.83 1788.5,-529.83 1788.5,-533.79 1784.54,-537.75 1780.58,-537.75"/>
<text xml:space="preserve" text-anchor="middle" x="1680.38" y="-520.45" font-family="Arial" font-size="14.00" fill="#cfffac">dataconnect&#45;generated/index.d.ts</text>
</g>
<!-- services/firebase.ts&#45;&gt;dataconnect&#45;generated/index.d.ts -->
<g id="edge49" class="edge">
<title>services/firebase.ts&#45;&gt;dataconnect&#45;generated/index.d.ts</title>
<path fill="none" stroke="#757575" d="M1477.25,-557.65C1510.98,-552.35 1552.72,-545.79 1589.49,-540.01"/>
<polygon fill="#757575" stroke="#757575" points="1589.89,-543.49 1599.23,-538.48 1588.81,-536.57 1589.89,-543.49"/>
</g>
<!-- components/QuestionDistributionBlock.tsx&#45;&gt;utilities/ratingColors.ts -->
<g id="edge24" class="edge">
<title>components/QuestionDistributionBlock.tsx&#45;&gt;utilities/ratingColors.ts</title>
<path fill="none" stroke="#757575" d="M959.33,-163.55C1039.12,-153.25 1152.21,-137.02 1250.25,-116.88 1286.33,-109.46 1326.41,-98.93 1357.44,-90.27"/>
<polygon fill="#757575" stroke="#757575" points="1358.3,-93.67 1366.98,-87.59 1356.4,-86.93 1358.3,-93.67"/>
</g>
<!-- components/QuestionDistributionBlock.tsx&#45;&gt;types/types.ts -->
<g id="edge23" class="edge">
<title>components/QuestionDistributionBlock.tsx&#45;&gt;types/types.ts</title>
<path fill="none" stroke="#757575" d="M942.81,-163.53C1025.01,-155.44 1150.57,-152.74 1250.25,-192.88 1313.71,-218.42 1368.91,-280.54 1394.72,-313.13"/>
<polygon fill="#757575" stroke="#757575" points="1391.66,-314.9 1400.55,-320.66 1397.19,-310.61 1391.66,-314.9"/>
</g>
<!-- components/QuestionDistributionBlock.tsx&#45;&gt;components/DistributionChart.tsx -->
<g id="edge22" class="edge">
<title>components/QuestionDistributionBlock.tsx&#45;&gt;components/DistributionChart.tsx</title>
<path fill="none" stroke="#757575" d="M947.61,-188.21C975.48,-191.98 1006.31,-196.15 1034.88,-200.01"/>
<polygon fill="#757575" stroke="#757575" points="1034.24,-203.46 1044.62,-201.33 1035.18,-196.52 1034.24,-203.46"/>
</g>
<!-- components/RatingBar.tsx -->
<g id="node22" class="node">
<title>components/RatingBar.tsx</title>
<path fill="none" stroke="#c6c5fe" d="M1217.58,-23.75C1217.58,-23.75 1059.17,-23.75 1059.17,-23.75 1055.21,-23.75 1051.25,-19.79 1051.25,-15.83 1051.25,-15.83 1051.25,-7.92 1051.25,-7.92 1051.25,-3.96 1055.21,0 1059.17,0 1059.17,0 1217.58,0 1217.58,0 1221.54,0 1225.5,-3.96 1225.5,-7.92 1225.5,-7.92 1225.5,-15.83 1225.5,-15.83 1225.5,-19.79 1221.54,-23.75 1217.58,-23.75"/>
<text xml:space="preserve" text-anchor="middle" x="1138.38" y="-6.45" font-family="Arial" font-size="14.00" fill="#c6c5fe">components/RatingBar.tsx</text>
</g>
<!-- components/RatingBar.tsx&#45;&gt;utilities/ratingColors.ts -->
<g id="edge25" class="edge">
<title>components/RatingBar.tsx&#45;&gt;utilities/ratingColors.ts</title>
<path fill="none" stroke="#757575" d="M1208.73,-24.24C1222.52,-26.92 1236.87,-29.86 1250.25,-32.88 1285.55,-40.84 1324.87,-51.14 1355.7,-59.55"/>
<polygon fill="#757575" stroke="#757575" points="1354.62,-62.88 1365.19,-62.15 1356.47,-56.13 1354.62,-62.88"/>
</g>
<!-- data/courses.ts -->
<g id="node24" class="node">
<title>data/courses.ts</title>
<path fill="none" stroke="#cfffac" d="M99.58,-602.75C99.58,-602.75 7.92,-602.75 7.92,-602.75 3.96,-602.75 0,-598.79 0,-594.83 0,-594.83 0,-586.92 0,-586.92 0,-582.96 3.96,-579 7.92,-579 7.92,-579 99.58,-579 99.58,-579 103.54,-579 107.5,-582.96 107.5,-586.92 107.5,-586.92 107.5,-594.83 107.5,-594.83 107.5,-598.79 103.54,-602.75 99.58,-602.75"/>
<text xml:space="preserve" text-anchor="middle" x="53.75" y="-585.45" font-family="Arial" font-size="14.00" fill="#cfffac">data/courses.ts</text>
</g>
<!-- dataconnect&#45;generated/react/index.d.ts -->
<g id="node26" class="node">
<title>dataconnect&#45;generated/react/index.d.ts</title>
<path fill="none" stroke="#c6c5fe" d="M1528.33,-537.75C1528.33,-537.75 1294.17,-537.75 1294.17,-537.75 1290.21,-537.75 1286.25,-533.79 1286.25,-529.83 1286.25,-529.83 1286.25,-521.92 1286.25,-521.92 1286.25,-517.96 1290.21,-514 1294.17,-514 1294.17,-514 1528.33,-514 1528.33,-514 1532.29,-514 1536.25,-517.96 1536.25,-521.92 1536.25,-521.92 1536.25,-529.83 1536.25,-529.83 1536.25,-533.79 1532.29,-537.75 1528.33,-537.75"/>
<text xml:space="preserve" text-anchor="middle" x="1411.25" y="-520.45" font-family="Arial" font-size="14.00" fill="#c6c5fe">dataconnect&#45;generated/react/index.d.ts</text>
</g>
<!-- dataconnect&#45;generated/react/index.d.ts&#45;&gt;dataconnect&#45;generated/index.d.ts -->
<g id="edge27" class="edge">
<title>dataconnect&#45;generated/react/index.d.ts&#45;&gt;dataconnect&#45;generated/index.d.ts</title>
<path fill="none" stroke="#757575" d="M1536.43,-525.88C1544.48,-525.88 1552.59,-525.88 1560.62,-525.88"/>
<polygon fill="#757575" stroke="#757575" points="1560.4,-529.38 1570.4,-525.88 1560.4,-522.38 1560.4,-529.38"/>
</g>
<!-- hooks/useCourseOffering.ts&#45;&gt;types/types.ts -->
<g id="edge29" class="edge">
<title>hooks/useCourseOffering.ts&#45;&gt;types/types.ts</title>
<path fill="none" stroke="#757575" d="M947.64,-453.05C1028.58,-450.24 1149.29,-440.9 1250.25,-411.88 1298.55,-397.99 1350.05,-370.27 1381.19,-351.9"/>
<polygon fill="#757575" stroke="#757575" points="1382.86,-354.98 1389.64,-346.84 1379.26,-348.97 1382.86,-354.98"/>
</g>
<!-- services/courseService.ts -->
<g id="node28" class="node">
<title>services/courseService.ts</title>
<path fill="none" stroke="#c6c5fe" d="M1214.96,-499.75C1214.96,-499.75 1061.79,-499.75 1061.79,-499.75 1057.83,-499.75 1053.88,-495.79 1053.88,-491.83 1053.88,-491.83 1053.88,-483.92 1053.88,-483.92 1053.88,-479.96 1057.83,-476 1061.79,-476 1061.79,-476 1214.96,-476 1214.96,-476 1218.92,-476 1222.88,-479.96 1222.88,-483.92 1222.88,-483.92 1222.88,-491.83 1222.88,-491.83 1222.88,-495.79 1218.92,-499.75 1214.96,-499.75"/>
<text xml:space="preserve" text-anchor="middle" x="1138.38" y="-482.45" font-family="Arial" font-size="14.00" fill="#c6c5fe">services/courseService.ts</text>
</g>
<!-- hooks/useCourseOffering.ts&#45;&gt;services/courseService.ts -->
<g id="edge28" class="edge">
<title>hooks/useCourseOffering.ts&#45;&gt;services/courseService.ts</title>
<path fill="none" stroke="#757575" d="M947.61,-464.91C978.01,-468.59 1011.93,-472.7 1042.6,-476.41"/>
<polygon fill="#757575" stroke="#757575" points="1041.88,-479.85 1052.23,-477.57 1042.72,-472.9 1041.88,-479.85"/>
</g>
<!-- services/courseService.ts&#45;&gt;types/types.ts -->
<g id="edge48" class="edge">
<title>services/courseService.ts&#45;&gt;types/types.ts</title>
<path fill="none" stroke="#757575" d="M1212.84,-475.52C1225.66,-472 1238.6,-467.54 1250.25,-461.88 1307.66,-433.96 1363.19,-382.29 1391.28,-353.88"/>
<polygon fill="#757575" stroke="#757575" points="1393.56,-356.56 1398.03,-346.95 1388.55,-351.67 1393.56,-356.56"/>
</g>
<!-- services/courseService.ts&#45;&gt;services/firebase.ts -->
<g id="edge47" class="edge">
<title>services/courseService.ts&#45;&gt;services/firebase.ts</title>
<path fill="none" stroke="#757575" d="M1215.22,-500.17C1227.32,-503.67 1239.41,-508.15 1250.25,-513.88 1269.44,-524.02 1266.75,-537.34 1286.25,-546.88 1300.91,-554.05 1317.58,-558.82 1333.84,-561.98"/>
<polygon fill="#757575" stroke="#757575" points="1333.06,-565.4 1343.51,-563.67 1334.26,-558.5 1333.06,-565.4"/>
</g>
<!-- services/courseService.ts&#45;&gt;dataconnect&#45;generated/index.d.ts -->
<g id="edge46" class="edge">
<title>services/courseService.ts&#45;&gt;dataconnect&#45;generated/index.d.ts</title>
<path fill="none" stroke="#757575" d="M1223.17,-488.96C1303.61,-490.6 1428.46,-494.69 1536.25,-504.88 1554.97,-506.64 1574.99,-509.18 1593.94,-511.87"/>
<polygon fill="#757575" stroke="#757575" points="1593.37,-515.33 1603.77,-513.3 1594.38,-508.4 1593.37,-515.33"/>
</g>
<!-- hooks/useCourses.ts&#45;&gt;types/types.ts -->
<g id="edge31" class="edge">
<title>hooks/useCourses.ts&#45;&gt;types/types.ts</title>
<path fill="none" stroke="#757575" d="M926.77,-412.46C1006.09,-411.92 1138.54,-407.37 1250.25,-385.88 1291.81,-377.88 1337.59,-362.27 1369.49,-350.23"/>
<polygon fill="#757575" stroke="#757575" points="1370.67,-353.53 1378.76,-346.68 1368.17,-346.99 1370.67,-353.53"/>
</g>
<!-- hooks/useCourses.ts&#45;&gt;services/courseService.ts -->
<g id="edge30" class="edge">
<title>hooks/useCourses.ts&#45;&gt;services/courseService.ts</title>
<path fill="none" stroke="#757575" d="M926.54,-420.12C947.32,-423.29 969.98,-427.49 990.5,-432.88 1028.33,-442.81 1069.95,-458.91 1099.2,-471.13"/>
<polygon fill="#757575" stroke="#757575" points="1097.8,-474.34 1108.37,-475.02 1100.53,-467.9 1097.8,-474.34"/>
</g>
<!-- index.css -->
<g id="node30" class="node">
<title>index.css</title>
<path fill="none" stroke="#cfffac" d="M207.83,-518.75C207.83,-518.75 151.42,-518.75 151.42,-518.75 147.46,-518.75 143.5,-514.79 143.5,-510.83 143.5,-510.83 143.5,-502.92 143.5,-502.92 143.5,-498.96 147.46,-495 151.42,-495 151.42,-495 207.83,-495 207.83,-495 211.79,-495 215.75,-498.96 215.75,-502.92 215.75,-502.92 215.75,-510.83 215.75,-510.83 215.75,-514.79 211.79,-518.75 207.83,-518.75"/>
<text xml:space="preserve" text-anchor="middle" x="179.62" y="-501.45" font-family="Arial" font-size="14.00" fill="#cfffac">index.css</text>
</g>
<!-- main.tsx -->
<g id="node31" class="node">
<title>main.tsx</title>
<path fill="none" stroke="#c6c5fe" d="M79.33,-518.75C79.33,-518.75 28.17,-518.75 28.17,-518.75 24.21,-518.75 20.25,-514.79 20.25,-510.83 20.25,-510.83 20.25,-502.92 20.25,-502.92 20.25,-498.96 24.21,-495 28.17,-495 28.17,-495 79.33,-495 79.33,-495 83.29,-495 87.25,-498.96 87.25,-502.92 87.25,-502.92 87.25,-510.83 87.25,-510.83 87.25,-514.79 83.29,-518.75 79.33,-518.75"/>
<text xml:space="preserve" text-anchor="middle" x="53.75" y="-501.45" font-family="Arial" font-size="14.00" fill="#c6c5fe">main.tsx</text>
</g>
<!-- main.tsx&#45;&gt;App.tsx -->
<g id="edge32" class="edge">
<title>main.tsx&#45;&gt;App.tsx</title>
<path fill="none" stroke="#757575" d="M87.62,-518.02C103.11,-523.27 121.74,-529.59 138.1,-535.13"/>
<polygon fill="#757575" stroke="#757575" points="136.96,-538.45 147.56,-538.34 139.21,-531.82 136.96,-538.45"/>
</g>
<!-- main.tsx&#45;&gt;index.css -->
<g id="edge33" class="edge">
<title>main.tsx&#45;&gt;index.css</title>
<path fill="none" stroke="#757575" d="M87.62,-506.88C101.19,-506.88 117.18,-506.88 131.93,-506.88"/>
<polygon fill="#757575" stroke="#757575" points="131.91,-510.38 141.91,-506.88 131.91,-503.38 131.91,-510.38"/>
</g>
<!-- test/setup.ts -->
<g id="node32" class="node">
<title>test/setup.ts</title>
<path fill="none" stroke="#cfffac" d="M90.21,-644.75C90.21,-644.75 17.29,-644.75 17.29,-644.75 13.33,-644.75 9.38,-640.79 9.38,-636.83 9.38,-636.83 9.38,-628.92 9.38,-628.92 9.38,-624.96 13.33,-621 17.29,-621 17.29,-621 90.21,-621 90.21,-621 94.17,-621 98.12,-624.96 98.12,-628.92 98.12,-628.92 98.12,-636.83 98.12,-636.83 98.12,-640.79 94.17,-644.75 90.21,-644.75"/>
<text xml:space="preserve" text-anchor="middle" x="53.75" y="-627.45" font-family="Arial" font-size="14.00" fill="#cfffac">test/setup.ts</text>
</g>
<!-- vite&#45;env.d.ts -->
<g id="node33" class="node">
<title>vite&#45;env.d.ts</title>
<path fill="none" stroke="#cfffac" d="M89.83,-686.75C89.83,-686.75 17.67,-686.75 17.67,-686.75 13.71,-686.75 9.75,-682.79 9.75,-678.83 9.75,-678.83 9.75,-670.92 9.75,-670.92 9.75,-666.96 13.71,-663 17.67,-663 17.67,-663 89.83,-663 89.83,-663 93.79,-663 97.75,-666.96 97.75,-670.92 97.75,-670.92 97.75,-678.83 97.75,-678.83 97.75,-682.79 93.79,-686.75 89.83,-686.75"/>
<text xml:space="preserve" text-anchor="middle" x="53.75" y="-669.45" font-family="Arial" font-size="14.00" fill="#cfffac">vite&#45;env.d.ts</text>
</g>
</g>
</svg>
